<svg xmlns="http://www.w3.org/2000/svg" width="480" height="620" viewBox="0 0 480 620" role="img" aria-label="Original astromech-style droid, detailed">
    <defs>
      <linearGradient id="domeG" x1="0" y1="0" x2="1" y2="1">
        <stop offset="0" stop-color="#f7f4ed"></stop>
        <stop offset="0.55" stop-color="#dcd7cb"></stop>
        <stop offset="1" stop-color="#bab4a6"></stop>
      </linearGradient>
      <linearGradient id="bodyG" x1="0" y1="0" x2="1" y2="0">
        <stop offset="0" stop-color="#d8d3c7"></stop>
        <stop offset="0.28" stop-color="#faf8f3"></stop>
        <stop offset="0.72" stop-color="#efece4"></stop>
        <stop offset="1" stop-color="#c3bdaf"></stop>
      </linearGradient>
      <linearGradient id="legG" x1="0" y1="0" x2="1" y2="0">
        <stop offset="0" stop-color="#c9c3b5"></stop>
        <stop offset="0.5" stop-color="#a9a294"></stop>
        <stop offset="1" stop-color="#8a8477"></stop>
      </linearGradient>
      <linearGradient id="acc" x1="0" y1="0" x2="0" y2="1">
        <stop offset="0" stop-color="#f5a623"></stop>
        <stop offset="1" stop-color="#d97706"></stop>
      </linearGradient>
      <radialGradient id="eyeG" cx="0.38" cy="0.32" r="0.9">
        <stop offset="0" stop-color="#8ed0f5"></stop>
        <stop offset="0.35" stop-color="#1d7fc0"></stop>
        <stop offset="1" stop-color="#083a5c"></stop>
      </radialGradient>
      <radialGradient id="glow" cx="0.5" cy="0.5" r="0.5">
        <stop offset="0" stop-color="#7cc4ee" stop-opacity="0.55"></stop>
        <stop offset="1" stop-color="#7cc4ee" stop-opacity="0"></stop>
      </radialGradient>
    </defs>
    
    <ellipse cx="240" cy="588" rx="172" ry="20" fill="#000" opacity="0.4"></ellipse>
    <ellipse cx="240" cy="588" rx="120" ry="13" fill="#000" opacity="0.3"></ellipse>

    
    <g>
      
      <circle cx="92" cy="272" r="34" fill="url(#legG)" stroke="#767061" stroke-width="2"></circle>
      <circle cx="388" cy="272" r="34" fill="url(#legG)" stroke="#767061" stroke-width="2"></circle>
      <circle cx="92" cy="272" r="20" fill="url(#acc)" stroke="#a85c05" stroke-width="1.5"></circle>
      <circle cx="388" cy="272" r="20" fill="url(#acc)" stroke="#a85c05" stroke-width="1.5"></circle>
      <circle cx="92" cy="272" r="7" fill="#3a3e48"></circle>
      <circle cx="388" cy="272" r="7" fill="#3a3e48"></circle>
      
      <path d="M70 272 L114 272 L120 452 Q120 466 106 466 L78 466 Q64 466 64 452 Z" fill="url(#legG)" stroke="#767061" stroke-width="2"></path>
      <path d="M366 272 L410 272 L416 452 Q416 466 402 466 L374 466 Q360 466 360 452 Z" fill="url(#legG)" stroke="#767061" stroke-width="2"></path>
      
      <rect x="80" y="308" width="22" height="96" rx="10" fill="url(#acc)" stroke="#a85c05" stroke-width="1"></rect>
      <rect x="376" y="308" width="22" height="96" rx="10" fill="url(#acc)" stroke="#a85c05" stroke-width="1"></rect>
      <g fill="#77716a" opacity="0.85">
        <rect x="84" y="418" width="14" height="3" rx="1.5"></rect><rect x="84" y="426" width="14" height="3" rx="1.5"></rect><rect x="84" y="434" width="14" height="3" rx="1.5"></rect>
        <rect x="380" y="418" width="14" height="3" rx="1.5"></rect><rect x="380" y="426" width="14" height="3" rx="1.5"></rect><rect x="380" y="434" width="14" height="3" rx="1.5"></rect>
      </g>
      
      <circle cx="91" cy="466" r="14" fill="#8a8477" stroke="#6b6558" stroke-width="2"></circle>
      <circle cx="388" cy="466" r="14" fill="#8a8477" stroke="#6b6558" stroke-width="2"></circle>
      
      <g fill="#9d9789" stroke="#77716a" stroke-width="2">
        <path d="M56 468 L126 468 L142 546 Q144 560 130 560 L52 560 Q38 560 40 546 Z"></path>
        <path d="M354 468 L424 468 L440 546 Q442 560 428 560 L350 560 Q336 560 338 546 Z"></path>
      </g>
      <rect x="52" y="510" width="80" height="14" fill="url(#acc)"></rect>
      <rect x="348" y="510" width="80" height="14" fill="url(#acc)"></rect>
      
      <g fill="#5c574c">
        <rect x="46" y="552" width="92" height="8" rx="4"></rect>
        <rect x="342" y="552" width="92" height="8" rx="4"></rect>
      </g>
      <g fill="#77716a">
        <circle cx="66" cy="492" r="4"></circle><circle cx="116" cy="492" r="4"></circle>
        <circle cx="364" cy="492" r="4"></circle><circle cx="414" cy="492" r="4"></circle>
      </g>
    </g>

    
    <rect x="222" y="470" width="36" height="60" fill="url(#legG)" stroke="#767061" stroke-width="2"></rect>
    <path d="M196 528 L284 528 L292 566 Q294 578 282 578 L198 578 Q186 578 188 566 Z" fill="#9d9789" stroke="#77716a" stroke-width="2"></path>
    <rect x="196" y="546" width="88" height="10" fill="url(#acc)"></rect>
    <rect x="192" y="570" width="96" height="7" rx="3.5" fill="#5c574c"></rect>

    
    <rect x="132" y="208" width="216" height="310" rx="38" fill="url(#bodyG)" stroke="#a9a294" stroke-width="2.5"></rect>
    
    <g stroke="#b8b2a4" stroke-width="1.5" fill="none" opacity="0.8">
      <line x1="132" y1="278" x2="348" y2="278"></line>
      <line x1="132" y1="398" x2="348" y2="398"></line>
      <line x1="240" y1="398" x2="240" y2="518"></line>
    </g>
    
    <rect x="152" y="228" width="66" height="42" rx="8" fill="url(#acc)" stroke="#a85c05" stroke-width="1.5"></rect>
    <rect x="262" y="228" width="66" height="42" rx="8" fill="url(#acc)" stroke="#a85c05" stroke-width="1.5"></rect>
    <g stroke="#a85c05" stroke-width="1" opacity="0.7">
      <line x1="152" y1="249" x2="218" y2="249"></line>
      <line x1="262" y1="249" x2="328" y2="249"></line>
    </g>
    <rect x="228" y="234" width="24" height="30" rx="5" fill="#e3dfd4" stroke="#b8b2a4" stroke-width="1.5"></rect>
    <circle cx="240" cy="249" r="6" fill="#3a3e48"></circle>
    
    <circle cx="186" cy="330" r="22" fill="#2b2e36" stroke="#1c1e24" stroke-width="2"></circle>
    <circle cx="186" cy="330" r="13" fill="#4a4f5c"></circle>
    <circle cx="186" cy="330" r="5" fill="#6b7280"></circle>
    <circle cx="181" cy="324" r="3" fill="#9aa3b2"></circle>
    <g fill="#b8b2a4" stroke="#8a8477" stroke-width="1">
      <rect x="226" y="306" width="102" height="12" rx="6"></rect>
      <rect x="226" y="326" width="102" height="12" rx="6"></rect>
      <rect x="226" y="346" width="102" height="12" rx="6"></rect>
    </g>
    <g fill="#77716a">
      <rect x="234" y="309" width="4" height="6" rx="1"></rect><rect x="246" y="309" width="4" height="6" rx="1"></rect><rect x="258" y="309" width="4" height="6" rx="1"></rect><rect x="270" y="309" width="4" height="6" rx="1"></rect><rect x="282" y="309" width="4" height="6" rx="1"></rect><rect x="294" y="309" width="4" height="6" rx="1"></rect><rect x="306" y="309" width="4" height="6" rx="1"></rect><rect x="318" y="309" width="4" height="6" rx="1"></rect>
    </g>
    <rect x="152" y="366" width="70" height="10" rx="5" fill="url(#acc)"></rect>
    
    <rect x="152" y="414" width="72" height="88" rx="10" fill="#e3dfd4" stroke="#b8b2a4" stroke-width="1.5"></rect>
    <rect x="160" y="424" width="56" height="30" rx="6" fill="url(#acc)" stroke="#a85c05" stroke-width="1"></rect>
    <rect x="160" y="462" width="56" height="30" rx="6" fill="#3a3e48"></rect>
    <g fill="#9aa3b2"><circle cx="172" cy="477" r="4"></circle><circle cx="188" cy="477" r="4"></circle><circle cx="204" cy="477" r="4"></circle></g>
    
    <rect x="256" y="414" width="72" height="88" rx="10" fill="#e3dfd4" stroke="#b8b2a4" stroke-width="1.5"></rect>
    <circle cx="292" cy="444" r="16" fill="#2b2e36"></circle>
    <circle cx="292" cy="444" r="9" fill="#4a4f5c"></circle>
    <rect x="286" y="440" width="12" height="8" rx="2" fill="#1c1e24"></rect>
    <g>
      <rect x="266" y="472" width="12" height="20" rx="3" fill="#37b24d"></rect>
      <rect x="286" y="472" width="12" height="20" rx="3" fill="#f5a623"></rect>
      <rect x="306" y="472" width="12" height="20" rx="3" fill="#c0392b"></rect>
    </g>
    
    <g fill="#a9a294">
      <circle cx="148" cy="224" r="3"></circle><circle cx="332" cy="224" r="3"></circle>
      <circle cx="148" cy="502" r="3"></circle><circle cx="332" cy="502" r="3"></circle>
    </g>

    
    <path d="M134 212 A106 106 0 0 1 346 212 Z" fill="url(#domeG)" stroke="#a9a294" stroke-width="2.5"></path>
    
    <path d="M144 212 A96 96 0 0 1 336 212" fill="none" stroke="#d97706" stroke-width="6" opacity="0.9"></path>
    <path d="M160 212 A80 80 0 0 1 320 212" fill="none" stroke="#b8b2a4" stroke-width="1.5" opacity="0.7"></path>
    
    <g stroke="#b8b2a4" stroke-width="1.5" opacity="0.75" fill="none">
      <line x1="196" y1="118" x2="178" y2="208"></line>
      <line x1="284" y1="118" x2="302" y2="208"></line>
    </g>
    
    <rect x="162" y="176" width="50" height="22" rx="10" fill="url(#acc)" stroke="#a85c05" stroke-width="1.5"></rect>
    <rect x="268" y="176" width="42" height="22" rx="10" fill="#3a3e48"></rect>
    <g fill="#9aa3b2"><rect x="274" y="183" width="6" height="8" rx="2"></rect><rect x="284" y="183" width="6" height="8" rx="2"></rect><rect x="294" y="183" width="6" height="8" rx="2"></rect></g>
    <rect x="222" y="180" width="36" height="14" rx="7" fill="#c9c4b8" stroke="#a9a294" stroke-width="1"></rect>
    
    <circle cx="240" cy="148" r="40" fill="url(#glow)"></circle>
    <circle cx="240" cy="148" r="29" fill="#22252c" stroke="#15171c" stroke-width="2"></circle>
    <circle cx="240" cy="148" r="19" fill="url(#eyeG)"></circle>
    <circle cx="232" cy="140" r="6" fill="#bfe4f8" opacity="0.9"></circle>
    <circle cx="248" cy="156" r="3" fill="#7cc4ee" opacity="0.6"></circle>
    
    <circle cx="306" cy="156" r="9" fill="#2b2e36"></circle>
    <circle cx="306" cy="156" r="5" fill="#c0392b"></circle>
    <circle cx="308" cy="153" r="1.8" fill="#f2a09a"></circle>
    <circle cx="176" cy="158" r="7" fill="#2b2e36"></circle>
    <circle cx="176" cy="158" r="3.5" fill="#37b24d"></circle>
    
    <rect x="178" y="98" width="4" height="46" fill="#8a8477"></rect>
    <circle cx="180" cy="93" r="7" fill="url(#acc)" stroke="#a85c05" stroke-width="1.5"></circle>
    
    <rect x="296" y="112" width="10" height="18" rx="4" fill="#8a8477"></rect>
  </svg>